<svg width="28" height="25" viewBox="0 0 28 25" fill="none" xmlns="http://www.w3.org/2000/svg">
<path d="M9.99996 0.666748L7.55996 3.33341H3.33329C1.86663 3.33341 0.666626 4.53341 0.666626 6.00008V22.0001C0.666626 23.4667 1.86663 24.6667 3.33329 24.6667H24.6666C26.1333 24.6667 27.3333 23.4667 27.3333 22.0001V6.00008C27.3333 4.53341 26.1333 3.33341 24.6666 3.33341H20.44L18 0.666748H9.99996ZM14 20.6667C10.32 20.6667 7.33329 17.6801 7.33329 14.0001C7.33329 10.3201 10.32 7.33342 14 7.33342C17.68 7.33342 20.6666 10.3201 20.6666 14.0001C20.6666 17.6801 17.68 20.6667 14 20.6667Z" fill="#2A7AE4"/>
</svg>
